# xmcd CD database file
#
# Track frame offsets:
#	150
#	19411
#	42601
#	54945
#	69800
#	86123
#	101986
#	125172
#	144290
#	164501
#	173569
#	187427
#
# Disc length: 3084 seconds
#
# Revision: 3
# Processed by: cddbd v1.5.2PL0 Copyright (c) Steve Scherf et al.
# Submitted via: CDex 1.51
#
DISCID=b10c0a0c
DTITLE=Various Artist - STTW-3108
DYEAR=1900
DGENRE=Blues
TTITLE0=SISTER SLEDGE - WE ARE FAMILY
TTITLE1=WIZZARD - SEE MY BABY JIVE
TTITLE2=THE CRYSTALS - DA DOO RON RON
TTITLE3=MARMALADE - OB LA DI OB LA DA
TTITLE4=THE NOLANS - I'M IN THE MOOD FOR DANCING
TTITLE5=VIC REEVES and THE WONDERSTUFF - DIZZY
TTITLE6=KOOL and THE GANG - GET DOWN ON IT
TTITLE7=JAMES - SIT DOWN
TTITLE8=WHAM - WAKE ME UP BEFORE YOU GO
TTITLE9=SWINGING BLUE JEANS - HIPPY HIPPY SHAKE
TTITLE10=BIG DEE IRVIN - SWINGING ON A STAR
TTITLE11=TIGHT FIT - BACK TO THE SIXTIES
EXTD=
EXTT0=
EXTT1=
EXTT2=
EXTT3=
EXTT4=
EXTT5=
EXTT6=
EXTT7=
EXTT8=
EXTT9=
EXTT10=
EXTT11=
PLAYORDER=
